<svg width="360" height="90" viewBox="0 0 360 90" xmlns="http://www.w3.org/2000/svg" role="img">
  <title>YieldRoutes</title>
  <desc>YieldRoutes logo: the route-convergence mark alongside the wordmark.</desc>
  <defs>
    <linearGradient id="routeGradient" x1="0%" y1="50%" x2="100%" y2="50%">
      <stop offset="0%" stop-color="#1dd9b3"/>
      <stop offset="100%" stop-color="#7B61FF"/>
    </linearGradient>
    <linearGradient id="starGradient" x1="0%" y1="0%" x2="100%" y2="100%">
      <stop offset="0%" stop-color="#f5c451"/>
      <stop offset="100%" stop-color="#f59e0b"/>
    </linearGradient>
  </defs>

  <g transform="translate(0, -3) scale(0.68)">
    <circle cx="18" cy="38" r="3.2" fill="#1dd9b3" opacity="0.5"/>
    <path d="M18,38 Q58,22 81,64" fill="none" stroke="#1dd9b3" stroke-width="3" stroke-linecap="round" opacity="0.4"/>
    <circle cx="18" cy="90" r="3.2" fill="#7B61FF" opacity="0.5"/>
    <path d="M18,90 Q58,106 81,64" fill="none" stroke="#7B61FF" stroke-width="3" stroke-linecap="round" opacity="0.4"/>
    <circle cx="18" cy="64" r="3.8" fill="#1dd9b3"/>
    <path d="M18,64 Q54,64 81,64" fill="none" stroke="url(#routeGradient)" stroke-width="5" stroke-linecap="round"/>
    <path d="M96,49 L101.66,58.34 L111,64 L101.66,69.66 L96,79 L90.34,69.66 L81,64 L90.34,58.34 Z" fill="url(#starGradient)"/>
  </g>

  <text x="112" y="42" font-family="'Raleway','Helvetica Neue',Arial,sans-serif" font-size="30" font-weight="700" letter-spacing="-0.3" fill="#0d0b16">Yield<tspan fill="#5b21b6">Routes</tspan></text>
  <text x="112" y="62" font-family="'Raleway','Helvetica Neue',Arial,sans-serif" font-size="12.5" font-weight="500" letter-spacing="2.5" fill="#6b7280">STELLAR · SOROBAN</text>
</svg>
