<svg width="360" height="90" viewBox="0 0 360 90" xmlns="http://www.w3.org/2000/svg" role="img">
  <title>YieldRoutes</title>
  <desc>YieldRoutes logo, dark background variant: the route-convergence mark alongside the wordmark.</desc>
  <defs>
    <linearGradient id="routeGradientD" x1="0%" y1="50%" x2="100%" y2="50%">
      <stop offset="0%" stop-color="#3ae8c4"/>
      <stop offset="100%" stop-color="#9c8cff"/>
    </linearGradient>
    <linearGradient id="starGradientD" x1="0%" y1="0%" x2="100%" y2="100%">
      <stop offset="0%" stop-color="#f5c451"/>
      <stop offset="100%" stop-color="#f59e0b"/>
    </linearGradient>
  </defs>

  <g transform="translate(0, -3) scale(0.68)">
    <circle cx="18" cy="38" r="3.2" fill="#3ae8c4" opacity="0.55"/>
    <path d="M18,38 Q58,22 81,64" fill="none" stroke="#3ae8c4" stroke-width="3" stroke-linecap="round" opacity="0.45"/>
    <circle cx="18" cy="90" r="3.2" fill="#9c8cff" opacity="0.55"/>
    <path d="M18,90 Q58,106 81,64" fill="none" stroke="#9c8cff" stroke-width="3" stroke-linecap="round" opacity="0.45"/>
    <circle cx="18" cy="64" r="3.8" fill="#3ae8c4"/>
    <path d="M18,64 Q54,64 81,64" fill="none" stroke="url(#routeGradientD)" stroke-width="5" stroke-linecap="round"/>
    <path d="M96,49 L101.66,58.34 L111,64 L101.66,69.66 L96,79 L90.34,69.66 L81,64 L90.34,58.34 Z" fill="url(#starGradientD)"/>
  </g>

  <text x="112" y="42" font-family="'Raleway','Helvetica Neue',Arial,sans-serif" font-size="30" font-weight="700" letter-spacing="-0.3" fill="#ffffff">Yield<tspan fill="#c4b5fd">Routes</tspan></text>
  <text x="112" y="62" font-family="'Raleway','Helvetica Neue',Arial,sans-serif" font-size="12.5" font-weight="500" letter-spacing="2.5" fill="#9ca3af">STELLAR · SOROBAN</text>
</svg>
